<svg width="24" height="23" viewBox="0 0 24 23" fill="none" xmlns="http://www.w3.org/2000/svg">
<g clip-path="url(#clip0)">
<path d="M6.24953 17.759C4.6486 17.759 3.22456 16.7767 2.70745 15.3143L2.67248 15.204C2.55053 14.8168 2.49944 14.4911 2.49944 14.1652V7.63101L0.0734183 15.3918C-0.238601 16.5333 0.472415 17.7168 1.66538 18.0321L17.1288 22.0008C17.3218 22.0487 17.5148 22.0717 17.7049 22.0717C18.7008 22.0717 19.6109 21.4382 19.866 20.5046L20.7669 17.759H6.24953Z" fill="#313131"/>
<path d="M8.99969 7.69628C10.1027 7.69628 10.9996 6.8366 10.9996 5.7795C10.9996 4.72241 10.1027 3.86273 8.99969 3.86273C7.89663 3.86273 6.99957 4.72241 6.99957 5.7795C6.99957 6.8366 7.89663 7.69628 8.99969 7.69628Z" fill="#313131"/>
<path d="M21.4998 0.987671H6.49948C5.12158 0.987671 3.99948 2.06301 3.99948 3.38368V13.9255C3.99948 15.2462 5.12158 16.3215 6.49948 16.3215H21.4998C22.8779 16.3215 24 15.2462 24 13.9255V3.38368C24 2.06301 22.8779 0.987671 21.4998 0.987671ZM6.49948 2.90444H21.4998C21.776 2.90444 21.9999 3.11906 21.9999 3.38368V10.1871L18.8409 6.65446C18.5058 6.27788 18.0208 6.0766 17.4998 6.06519C16.9818 6.068 16.4958 6.28841 16.1638 6.6699L12.4496 10.9421L11.2396 9.78538C10.5557 9.12996 9.44261 9.12996 8.75961 9.78538L5.99959 12.4295V3.38368C5.99959 3.11906 6.22353 2.90444 6.49948 2.90444Z" fill="#313131"/>
</g>
<defs>
<clipPath id="clip0">
<rect width="24" height="23" fill="white"/>
</clipPath>
</defs>
</svg>
