<?xml version="1.0" encoding="iso-8859-1"?>
<!-- Generator: Adobe Illustrator 20.0.0, SVG Export Plug-In . SVG Version: 6.00 Build 0)  -->
<svg version="1.1" id="Layer_1_1_" xmlns="http://www.w3.org/2000/svg" xmlns:xlink="http://www.w3.org/1999/xlink" x="0px" y="0px"
	 viewBox="0 0 64 64" style="enable-background:new 0 0 64 64;" xml:space="preserve">
<g id="Guide">
	<g>
	</g>
	<g>
	</g>
	<g>
	</g>
	<g>
	</g>
	<g>
	</g>
	<g>
	</g>
	<g>
	</g>
	<g>
	</g>
	<g>
	</g>
	<g>
	</g>
	<g>
	</g>
	<g>
	</g>
	<g>
	</g>
	<g>
	</g>
	<g>
	</g>
	<g>
	</g>
	<g>
	</g>
	<g>
	</g>
	<g>
	</g>
	<g>
	</g>
	<g>
	</g>
	<g>
	</g>
	<g>
	</g>
	<g>
	</g>
	<g>
	</g>
	<g>
	</g>
	<g>
	</g>
	<g>
	</g>
	<g>
	</g>
	<g>
	</g>
	<g>
	</g>
	<g>
	</g>
	<g>
	</g>
	<g>
	</g>
	<g>
	</g>
	<g>
	</g>
</g>
<path d="M32,0C14.355,0,0,14.355,0,32s14.355,32,32,32s32-14.355,32-32S49.645,0,32,0z M32,62C15.458,62,2,48.542,2,32
	S15.458,2,32,2s30,13.458,30,30S48.542,62,32,62z"/>
<path d="M32,6c-5.677,0-11.072,1.798-15.601,5.201c-0.231,0.174-0.377,0.44-0.396,0.729c-0.021,0.289,0.085,0.573,0.29,0.777
	l10.14,10.14c0.001,0.001,0.001,0.002,0.002,0.002l15.858,15.858l9,9C51.481,47.896,51.735,48,52,48c0.023,0,0.047-0.001,0.07-0.002
	c0.289-0.021,0.556-0.165,0.729-0.397C56.202,43.072,58,37.677,58,32C58,17.664,46.337,6,32,6z M35.85,22.773l0.187,0.086
	C39.544,24.414,42,27.923,42,32v3.586l-13.09-13.09C29.907,22.166,30.943,22,32,22C33.364,22,34.664,22.276,35.85,22.773z
	 M51.873,45.459L44,37.586V32c0-2.332-0.679-4.503-1.835-6.347C44.968,24.738,47,22.104,47,19h-2c0,2.469-1.803,4.512-4.158,4.915
	c-0.491-0.536-1.027-1.026-1.607-1.466C40.867,21.625,42,19.95,42,18h-2c0,1.654-1.346,3-3,3h-0.215
	c-0.014-0.007-0.029-0.013-0.043-0.019c-0.039-0.017-0.076-0.035-0.115-0.051c-0.013-0.005-0.025-0.012-0.038-0.017l-0.001,0.003
	C35.173,20.328,33.625,20,32,20c-1.6,0-3.15,0.335-4.627,0.959l-8.832-8.832C22.519,9.423,27.147,8,32,8c13.233,0,24,10.767,24,24
	C56,36.853,54.577,41.481,51.873,45.459z"/>
<path d="M12.707,16.293c-0.205-0.205-0.489-0.311-0.777-0.291c-0.289,0.021-0.556,0.165-0.729,0.397C7.798,20.928,6,26.323,6,32
	c0,9.485,5.108,17.797,12.716,22.339c0.012,0.008,0.018,0.021,0.03,0.028c0.138,0.082,0.283,0.152,0.422,0.232
	c0.257,0.146,0.516,0.289,0.778,0.427c0.19,0.1,0.38,0.199,0.572,0.293c0.374,0.185,0.753,0.361,1.136,0.528
	c0.077,0.033,0.151,0.071,0.228,0.103c0.475,0.201,0.958,0.384,1.447,0.557c0.12,0.042,0.241,0.082,0.361,0.122
	c0.41,0.139,0.824,0.267,1.243,0.386c0.099,0.028,0.197,0.058,0.296,0.084c1.027,0.277,2.078,0.492,3.151,0.642
	c0.122,0.017,0.244,0.031,0.367,0.047c0.412,0.052,0.827,0.094,1.245,0.126c0.138,0.011,0.276,0.023,0.415,0.032
	C30.934,57.979,31.464,58,32,58c0.637,0,1.271-0.029,1.904-0.076c0.304-0.022,0.604-0.06,0.906-0.092
	c0.302-0.033,0.604-0.065,0.904-0.109c0.405-0.057,0.805-0.128,1.205-0.205c0.163-0.032,0.326-0.064,0.488-0.099
	c0.486-0.102,0.968-0.216,1.446-0.346c0.008-0.002,0.016-0.005,0.023-0.007c3.125-0.854,6.076-2.277,8.724-4.268
	c0.231-0.174,0.377-0.44,0.396-0.729c0.021-0.289-0.085-0.573-0.29-0.777L12.707,16.293z M44.844,52.258
	c-1.884-1.675-4.435-2.921-7.353-3.615c1.004-0.52,1.939-1.176,2.77-1.968l5.198,5.198C45.258,52.01,45.048,52.128,44.844,52.258z
	 M36.114,55.637c-0.328,0.058-0.658,0.106-0.988,0.15c-0.262,0.034-0.526,0.063-0.79,0.088c-0.242,0.024-0.484,0.049-0.727,0.066
	C33.075,55.976,32.539,56,32,56c-0.453,0-0.905-0.015-1.355-0.041c-0.123-0.007-0.245-0.019-0.367-0.028
	c-0.333-0.024-0.666-0.052-0.997-0.09c-0.131-0.015-0.261-0.033-0.392-0.05c-0.327-0.043-0.654-0.091-0.978-0.147
	c-0.122-0.021-0.243-0.042-0.364-0.065c-0.345-0.065-0.689-0.139-1.031-0.219c-0.095-0.022-0.191-0.043-0.286-0.066
	c-0.425-0.105-0.847-0.22-1.265-0.348c-0.01-0.003-0.02-0.005-0.03-0.009c-0.429-0.132-0.854-0.278-1.275-0.434
	c-0.121-0.045-0.239-0.095-0.359-0.142c-0.279-0.109-0.556-0.221-0.831-0.34c-0.179-0.078-0.356-0.159-0.533-0.241
	c-0.207-0.096-0.412-0.195-0.617-0.296c-0.114-0.057-0.226-0.115-0.339-0.174C23.631,51.246,27.711,50,32,50
	c4.357,0,8.363,1.218,11.021,3.305c-2.061,1.07-4.261,1.826-6.526,2.261C36.368,55.59,36.241,55.615,36.114,55.637z M22,32
	c0-1.058,0.166-2.092,0.495-3.09l16.357,16.358C37.003,47.014,34.553,48,32,48c-5.514,0-10-4.486-10-10V32z M8,32
	c0-4.853,1.423-9.481,4.127-13.459l8.832,8.832C20.335,28.85,20,30.4,20,32v6c0,4.629,2.639,8.647,6.488,10.648
	c-2.909,0.695-5.452,1.94-7.332,3.611C12.457,47.996,8,40.511,8,32z"/>
</svg>
