<svg width="20" height="20" viewBox="0 0 20 20" fill="none" xmlns="http://www.w3.org/2000/svg">
<path d="M19.5069 1.81258C19.1939 1.49984 18.7779 1.32488 18.3356 1.31988C18.3291 1.3198 18.3227 1.31976 18.3162 1.31976C17.881 1.31976 17.4687 1.48496 17.1533 1.78636L7.76843 10.7601C8.77296 11.0161 9.63105 11.6607 10.192 12.6037C10.363 12.891 10.499 13.1952 10.6003 13.5091L19.5336 4.16644C19.8343 3.85172 20 3.43871 20 3.00351C20 2.55402 19.8251 2.13125 19.5069 1.81258Z" fill="#313131"/>
<path d="M6.8769 12.3099L6.87706 12.3099C7.77816 12.3476 8.46699 12.8754 8.84333 13.6177C9.22368 14.3678 9.26563 15.3057 8.87834 16.0961L8.87834 16.0961C8.163 17.5562 6.35854 18.1802 4.68848 18.1802C4.63642 18.1802 4.58483 18.1796 4.53356 18.1784L4.53352 18.1784C3.82136 18.1614 2.91562 17.9929 2.12461 17.6387C1.5311 17.3729 1.04138 17.0213 0.726721 16.5862C1.66086 16.2711 2.61359 15.7929 3.28504 14.9321L3.28504 14.9321C3.48521 14.6754 3.66819 14.3908 3.83221 14.1356C3.90946 14.0155 3.9825 13.9018 4.05115 13.8008C4.28161 13.4615 4.51287 13.1779 4.83021 12.9496C5.39347 12.5443 6.07819 12.3073 6.75633 12.3073C6.79662 12.3073 6.83682 12.3082 6.8769 12.3099Z" fill="#D8FF69" stroke="#313131"/>
</svg>
