<svg width="20" height="20" viewBox="0 0 20 20" fill="none" xmlns="http://www.w3.org/2000/svg">
<g clip-path="url(#clip0)">
<path d="M13.9583 8.33328H19.375C19.72 8.33328 20 8.05329 20 7.70828V2.29172C20 1.94672 19.72 1.66672 19.375 1.66672C19.03 1.66672 18.75 1.94672 18.75 2.29172V7.08328H13.9583C13.6133 7.08328 13.3333 7.36328 13.3333 7.70828C13.3333 8.05329 13.6133 8.33328 13.9583 8.33328Z" fill="#313131"/>
<path d="M9.99983 20C12.6698 20 15.1806 18.9592 17.0689 17.0691C17.3132 16.825 17.3132 16.4291 17.0689 16.185C16.824 15.9399 16.4282 15.9416 16.1848 16.185C14.5323 17.8392 12.3366 18.75 9.99983 18.75C5.17485 18.75 1.24984 14.825 1.24984 10C1.24984 5.17502 5.17485 1.25 9.99983 1.25C14.1348 1.25 17.8224 4.02924 18.7674 7.85828C18.8507 8.19412 19.1873 8.39828 19.5241 8.31589C19.859 8.23257 20.0632 7.89413 19.9815 7.5592C18.8998 3.17841 14.7023 0 9.99983 0C4.48561 0 -0.000164032 4.48578 -0.000164032 10C-0.000164032 15.5142 4.48561 20 9.99983 20Z" fill="#313131"/>
</g>
<defs>
<clipPath id="clip0">
<rect width="20" height="20" fill="white" transform="matrix(-1 0 0 1 20 0)"/>
</clipPath>
</defs>
</svg>
