<svg width="28" height="17" viewBox="0 0 28 17" fill="none" xmlns="http://www.w3.org/2000/svg">
<path d="M0.200056 14.2765L5.62664 1.99141C6.00497 1.14427 6.69418 0.631287 7.62855 0.631287H7.8287C8.76249 0.631287 9.42992 1.14417 9.80787 1.99141L15.2346 14.2765C15.3459 14.5218 15.4127 14.7447 15.4127 14.9677C15.4127 15.8818 14.701 16.6176 13.7891 16.6176C12.9884 16.6176 12.4546 16.1494 12.1433 15.4358L11.0981 12.9834H4.24802L3.15821 15.5475C2.86902 16.2163 2.29092 16.6176 1.57915 16.6176C0.689211 16.6176 0 15.9041 0 15.0123C0 14.767 0.0888492 14.5218 0.200056 14.2765ZM9.83033 9.95113L7.67288 4.80074L5.51562 9.95113H9.83033Z" fill="#313131"/>
<path d="M17.0353 13.0502V13.0056C17.0353 10.397 19.0148 9.19298 21.8393 9.19298C23.0404 9.19298 23.9079 9.39363 24.753 9.68355V9.48289C24.753 8.07814 23.8855 7.29794 22.1953 7.29794C21.2612 7.29794 20.505 7.43164 19.86 7.63239C19.66 7.69925 19.5264 7.72146 19.3705 7.72146C18.5923 7.72146 17.9696 7.11951 17.9696 6.33922C17.9696 5.73716 18.3476 5.22437 18.8812 5.02363C19.9488 4.62232 21.1055 4.39935 22.6845 4.39935C24.5303 4.39935 25.8649 4.88982 26.7101 5.73707C27.5997 6.62884 28 7.94443 28 9.54974V14.9899C28 15.9041 27.2661 16.6175 26.3542 16.6175C25.3756 16.6175 24.7307 15.9264 24.7307 15.2128V15.1905C23.9078 16.1046 22.7733 16.7066 21.1277 16.7066C18.8812 16.7068 17.0353 15.4138 17.0353 13.0502ZM24.7973 12.2698V11.6678C24.2191 11.4003 23.4629 11.2219 22.64 11.2219C21.1942 11.2219 20.3048 11.8016 20.3048 12.8718V12.9164C20.3048 13.8306 21.0609 14.3656 22.1507 14.3656C23.7297 14.3657 24.7973 13.4962 24.7973 12.2698Z" fill="#313131"/>
</svg>
