<svg width="20" height="20" viewBox="0 0 20 20" fill="none" xmlns="http://www.w3.org/2000/svg">
<g clip-path="url(#clip0)">
<path d="M6.04172 8.33328H0.625C0.279999 8.33328 0 8.05329 0 7.70828V2.29172C0 1.94672 0.279999 1.66672 0.625 1.66672C0.970001 1.66672 1.25 1.94672 1.25 2.29172V7.08328H6.04172C6.38672 7.08328 6.66672 7.36328 6.66672 7.70828C6.66672 8.05329 6.38672 8.33328 6.04172 8.33328Z" fill="#313131"/>
<path d="M10.0002 20C7.33018 20 4.81935 18.9592 2.93107 17.0691C2.68678 16.825 2.68678 16.4291 2.93107 16.185C3.17598 15.9399 3.57179 15.9416 3.81517 16.185C5.46769 17.8392 7.66343 18.75 10.0002 18.75C14.8251 18.75 18.7502 14.825 18.7502 10C18.7502 5.17502 14.8251 1.25 10.0002 1.25C5.86519 1.25 2.1776 4.02924 1.23262 7.85828C1.14931 8.19412 0.812697 8.39828 0.475936 8.31589C0.141006 8.23257 -0.0631567 7.89413 0.0184778 7.5592C1.10017 3.17841 5.29771 0 10.0002 0C15.5144 0 20.0002 4.48578 20.0002 10C20.0002 15.5142 15.5144 20 10.0002 20Z" fill="#313131"/>
</g>
<defs>
<clipPath id="clip0">
<rect width="20" height="20" fill="white"/>
</clipPath>
</defs>
</svg>
