<svg width="40" height="40" viewBox="0 0 40 40" fill="none" xmlns="http://www.w3.org/2000/svg">
<path d="M34.1734 8.90218L26.7722 0.461828C26.5148 0.168328 26.1434 0 25.753 0H7.05881C6.19257 0 5.49023 0.702332 5.49023 1.56858V38.4314C5.49023 39.2978 6.19257 40 7.05881 40H32.9411C33.8075 40 34.5098 39.2977 34.5098 38.4313V9.79593C34.5098 9.4671 34.3903 9.1495 34.1734 8.90218ZM7.05881 38.4949V1.5687H25.229V9.59404C25.229 10.027 25.5798 10.3784 26.0133 10.3784H32.9411L32.9419 38.4949H7.05881Z" fill="white"/>
<path d="M15.8125 22.3984H13.1406V27H11.6328V15.625H15.3984C16.6797 15.625 17.6641 15.9167 18.3516 16.5C19.0443 17.0833 19.3906 17.9323 19.3906 19.0469C19.3906 19.7552 19.1979 20.3724 18.8125 20.8984C18.4323 21.4245 17.901 21.8177 17.2188 22.0781L19.8906 26.9062V27H18.2812L15.8125 22.3984ZM13.1406 21.1719H15.4453C16.1901 21.1719 16.7812 20.9792 17.2188 20.5938C17.6615 20.2083 17.8828 19.6927 17.8828 19.0469C17.8828 18.3438 17.6719 17.8047 17.25 17.4297C16.8333 17.0547 16.2292 16.8646 15.4375 16.8594H13.1406V21.1719ZM24.8516 21.9297C23.5651 21.5599 22.6276 21.1068 22.0391 20.5703C21.4557 20.0286 21.1641 19.362 21.1641 18.5703C21.1641 17.6745 21.5208 16.9349 22.2344 16.3516C22.9531 15.763 23.8854 15.4688 25.0312 15.4688C25.8125 15.4688 26.5078 15.6198 27.1172 15.9219C27.7318 16.224 28.2057 16.6406 28.5391 17.1719C28.8776 17.7031 29.0469 18.2839 29.0469 18.9141H27.5391C27.5391 18.2266 27.3203 17.6875 26.8828 17.2969C26.4453 16.901 25.8281 16.7031 25.0312 16.7031C24.2917 16.7031 23.7135 16.8672 23.2969 17.1953C22.8854 17.5182 22.6797 17.9688 22.6797 18.5469C22.6797 19.0104 22.875 19.4036 23.2656 19.7266C23.6615 20.0443 24.3307 20.3359 25.2734 20.6016C26.2214 20.8672 26.9609 21.1615 27.4922 21.4844C28.0286 21.8021 28.4245 22.1745 28.6797 22.6016C28.9401 23.0286 29.0703 23.5312 29.0703 24.1094C29.0703 25.0312 28.7109 25.7708 27.9922 26.3281C27.2734 26.8802 26.3125 27.1562 25.1094 27.1562C24.3281 27.1562 23.599 27.0078 22.9219 26.7109C22.2448 26.4089 21.7214 25.9974 21.3516 25.4766C20.987 24.9557 20.8047 24.3646 20.8047 23.7031H22.3125C22.3125 24.3906 22.5651 24.9349 23.0703 25.3359C23.5807 25.7318 24.2604 25.9297 25.1094 25.9297C25.901 25.9297 26.5078 25.7682 26.9297 25.4453C27.3516 25.1224 27.5625 24.6823 27.5625 24.125C27.5625 23.5677 27.3672 23.138 26.9766 22.8359C26.5859 22.5286 25.8776 22.2266 24.8516 21.9297Z" fill="white"/>
</svg>
